<?xml version="1.0" encoding="UTF-8" standalone="no"?>
<!-- Generator: Gravit.io -->

<svg
   style="isolation:isolate"
   viewBox="0 0 283.465 283.465"
   width="283.465pt"
   height="283.465pt"
   version="1.1"
   id="svg5"
   sodipodi:docname="rambros-dragon-BW-logo.svg"
   inkscape:version="1.3.2 (091e20ef0f, 2023-11-25)"
   xmlns:inkscape="http://www.inkscape.org/namespaces/inkscape"
   xmlns:sodipodi="http://sodipodi.sourceforge.net/DTD/sodipodi-0.dtd"
   xmlns="http://www.w3.org/2000/svg"
   xmlns:svg="http://www.w3.org/2000/svg">
  <sodipodi:namedview
     id="namedview5"
     pagecolor="#ffffff"
     bordercolor="#000000"
     borderopacity="0.25"
     inkscape:showpageshadow="2"
     inkscape:pageopacity="0.0"
     inkscape:pagecheckerboard="0"
     inkscape:deskcolor="#d1d1d1"
     inkscape:document-units="pt"
     inkscape:zoom="1.6920079"
     inkscape:cx="64.124998"
     inkscape:cy="147.45794"
     inkscape:window-width="2560"
     inkscape:window-height="1534"
     inkscape:window-x="0"
     inkscape:window-y="0"
     inkscape:window-maximized="1"
     inkscape:current-layer="g4" />
  <defs
     id="defs1">
    <clipPath
       id="_clipPath_ph20i4F8o3LMvxKldqGnpb2GEXi3KFDj">
      <rect
         width="283.465"
         height="283.465"
         id="rect1" />
    </clipPath>
  </defs>
  <g
     clip-path="url(#_clipPath_ph20i4F8o3LMvxKldqGnpb2GEXi3KFDj)"
     id="g5"
     inkscape:label="g5">
    <g
       id="g4">
      <g
         id="g2">
        <circle
           vector-effect="non-scaling-stroke"
           cx="141.7322834645669"
           cy="141.7054977502807"
           r="141.73228346456693"
           fill="rgb(46,46,46)"
           id="circle1" />
        <circle
           vector-effect="non-scaling-stroke"
           cx="141.7322834645669"
           cy="141.70549775028067"
           r="130.3937007874016"
           fill="rgb(255,255,255)"
           id="circle2" />
      </g>
      <path
         d=" M 170.772 274.428 L 151.221 279.316 L 102.343 274.428 C 90.243 274.428 73.949 263.206 63.241 254.877 C 65.73 240.686 68.081 219.445 67.929 203.411 C 60.939 203.904 55.489 215.17 42.034 214.408 C 52.349 202.369 44.774 191.218 67.929 169.91 C 51.681 163.128 45.842 175.567 24.858 175.822 C 50.92 152.719 44.319 136.725 69.96 133.933 C 47.112 123.778 30.864 138.249 14.363 133.933 C 41.019 122.255 36.703 98.646 78.066 107.785 C 68.767 87.463 41.799 96.525 27.882 81.129 C 55.859 84.625 64.225 69.336 102.478 81.129 C 94.493 66.808 91.371 47.03 65.404 31.723 C 62.664 30.108 62.492 27.894 65.432 28.404 C 89.748 32.622 108.735 40.596 116.671 52.188 C 127.269 67.669 140.239 79.643 159.847 91.085 C 154.876 85.683 151.283 77.492 149.009 66.452 C 159.108 77.228 164.107 83.194 169.7 86.158 C 179.823 91.523 190.215 96.789 202.216 101.923 C 210.044 105.272 200.368 118.119 204.186 120.644 L 225.863 130.497 C 233.916 133.313 241.809 131.024 249.511 123.6 C 257.183 134.87 254.371 141.951 249.511 149.218 C 247.12 152.793 266.385 163.136 263.306 165.969 C 257.155 171.627 253.677 173.242 253.452 177.793 C 255.972 182.072 255.133 185.296 251.751 189.022 L 249.511 186.66 C 246.842 191.461 245.317 193.77 238.78 197.499 C 241.395 191.201 239.658 187.601 239.658 182.719 C 236.918 183.837 233.751 184.768 230.149 184.452 C 231.272 181.781 231.285 178.312 230.149 175.059 C 226.792 176.278 223.156 176.867 219.232 176.819 C 220.285 174.217 220.304 171.281 219.232 167.951 C 215.363 169.228 211.993 169.883 209.113 169.91 C 210.657 164.936 210.657 163.223 204.186 160.057 C 179.984 150.573 165.278 142.964 149.009 144.292 C 169.823 159.072 178.134 172.776 196.304 186.66 L 199.685 189.783 C 201.473 191.199 203.956 192.643 206.055 192.068 C 206.441 194.63 205.912 195.766 205.524 197.499 C 208.5 197.961 211.379 199.285 213.647 197.499 C 214.364 199.637 213.956 201.137 214.155 203.411 C 216.437 203.657 219.616 203.995 221.922 202.426 C 222.679 204.722 221.955 206.524 221.922 208.823 C 225.085 207.865 229.037 207.061 232.433 203.411 C 232.331 208.843 229.374 212.464 225.863 216.22 C 216.749 227.798 195.565 219.546 179.553 231.985 C 179.86 223.493 182.826 217.919 190.392 209.323 C 188.668 207.475 187.272 206.705 185.666 206.367 C 175.551 205.443 161.387 197.945 149.009 188.631 C 141.126 193.886 142.778 202.435 146.053 208.338 C 158.972 229.829 166.26 249.323 169.384 266.814 C 169.548 267.728 170.631 273.525 170.772 274.428 Z "
         fill="rgb(46,46,46)"
         id="path2" />
      <g
         id="g3">
        <path
           d="m 184.175,107.02 c 2.253,0.977 4.568,1.886 6.99,2.786 -1.519,7.35 -3.828,11.609 -6.898,10.838 -3.087,-0.935 -5.916,-2.008 -8.573,-3.154 0.555,-0.353 1.108,-0.753 1.655,-1.183 3.787,-2.972 6.303,-6.542 6.826,-9.287 z m -10.67373,-5.19158 c -3.248,-1.619 -3.42627,-1.70042 -6.96927,-3.84642 -12.73,2.956 -22.484,3.098 -26.604,5.912 10.15,0.993 14.39527,2.90542 22.15727,6.85442 1.17,-1.78 2.887,-3.624 5,-5.282 2.146,-1.685 4.382,-2.927 6.416,-3.638 z"
           fill-rule="evenodd"
           fill="#ffffff"
           id="path3"
           inkscape:label="path3"
           sodipodi:nodetypes="cccccccccccc" />
      </g>
    </g>
  </g>
</svg>
