<?xml version="1.0" encoding="UTF-8" standalone="no"?>
<!-- Generator: Gravit.io -->

<svg
   style="isolation:isolate"
   viewBox="0 0 4000 1000"
   width="4000pt"
   height="1000pt"
   version="1.1"
   id="svg8"
   sodipodi:docname="rambros-name-original.svg"
   inkscape:version="1.3.2 (091e20ef0f, 2023-11-25)"
   inkscape:export-filename="rambros-name-svg.svg"
   inkscape:export-xdpi="96"
   inkscape:export-ydpi="96"
   xmlns:inkscape="http://www.inkscape.org/namespaces/inkscape"
   xmlns:sodipodi="http://sodipodi.sourceforge.net/DTD/sodipodi-0.dtd"
   xmlns="http://www.w3.org/2000/svg"
   xmlns:svg="http://www.w3.org/2000/svg">
  <sodipodi:namedview
     id="namedview8"
     pagecolor="#ffffff"
     bordercolor="#000000"
     borderopacity="0"
     inkscape:showpageshadow="2"
     inkscape:pageopacity="0.0"
     inkscape:pagecheckerboard="false"
     inkscape:deskcolor="#000000"
     inkscape:document-units="pt"
     inkscape:zoom="0.11990625"
     inkscape:cx="3606.9846"
     inkscape:cy="-354.44358"
     inkscape:window-width="2560"
     inkscape:window-height="1534"
     inkscape:window-x="0"
     inkscape:window-y="0"
     inkscape:window-maximized="1"
     inkscape:current-layer="svg8"
     showborder="false"
     labelstyle="default"
     showgrid="true"
     inkscape:export-bgcolor="#ffffff00">
    <inkscape:grid
       id="grid8"
       units="pt"
       originx="0"
       originy="0"
       spacingx="9.9999997"
       spacingy="9.9999997"
       empcolor="#0099e5"
       empopacity="0.30196078"
       color="#0099e5"
       opacity="0.14901961"
       empspacing="5"
       dotted="false"
       gridanglex="30"
       gridanglez="30"
       visible="true" />
  </sodipodi:namedview>
  <defs
     id="defs1">
    <rect
       x="1700.9977"
       y="386.28726"
       width="966.07519"
       height="539.56744"
       id="rect10" />
    <rect
       x="2109.5145"
       y="213.12718"
       width="1100.2817"
       height="628.08248"
       id="rect9" />
    <rect
       x="1615.8228"
       y="161.45789"
       width="1552.8315"
       height="775.73042"
       id="rect8" />
    <clipPath
       id="_clipPath_SwkM0FGuSLXsB5k1xjPOJA6lOX1xXRs0">
      <rect
         width="1000"
         height="1000"
         id="rect1"
         x="0"
         y="0" />
    </clipPath>
  </defs>
  <rect
     style="isolation:isolate;fill:#373737;fill-opacity:1;stroke-width:5.61596;stroke-linecap:round;stroke-dasharray:none;paint-order:markers stroke fill"
     id="rect3"
     width="3700"
     height="850"
     x="300"
     y="100.00003"
     rx="172.91469" />
  <g
     clip-path="url(#_clipPath_SwkM0FGuSLXsB5k1xjPOJA6lOX1xXRs0)"
     id="g8">
    <rect
       width="1000"
       height="1000"
       style="fill:#000000"
       fill-opacity="0"
       id="rect2"
       x="0"
       y="0" />
    <circle
       vector-effect="non-scaling-stroke"
       cx="500"
       cy="500"
       r="480"
       fill="#ffffff"
       id="circle2" />
    <g
       id="g6">
      <radialGradient
         id="_rgradient_0"
         fx="0.50307488"
         fy="0.4984321"
         cx="0.5"
         cy="0.5"
         r="0.5"
         gradientTransform="matrix(1374.565,295.757,-354.565,1933.243,13.619,-569.58)"
         gradientUnits="userSpaceOnUse">
        <stop
           offset="0%"
           stop-opacity="1"
           style="stop-color:rgb(255,0,0)"
           id="stop2" />
        <stop
           offset="100%"
           stop-opacity="1"
           style="stop-color:rgb(255,238,0)"
           id="stop3" />
      </radialGradient>
      <path
         d="m 232.455,146 c 31.059,103.915 -4.311,153.309 -106.199,148.093 40.748,81.03 22.59,146.747 -54.561,197.064 64.079,39.472 75.476,84.883 34.101,136.147 65.751,21.746 83.967,63.994 54.56,126.659 40.027,14.248 38.947,36.733 17.727,112.091 l 54.372,38.925 73.261,34.55 110.881,-668.819 z"
         fill="url(#_rgradient_0)"
         id="path3"
         style="fill:url(#_rgradient_0)" />
      <path
         d="m 583.987,964.78 c -156.659,35.482 -274.612,8.928 -353.886,-79.69 8.115,-46.273 15.783,-115.536 15.285,-167.819 -22.791,1.607 -40.562,38.343 -84.435,35.86 33.635,-39.258 8.932,-75.62 84.435,-145.099 -52.979,-22.116 -72.018,18.446 -140.442,19.278 84.98,-75.334 63.457,-127.485 147.065,-136.591 -74.502,-33.112 -127.481,14.073 -181.288,0 C 157.64,452.64 143.567,375.655 278.441,405.456 247.97,345.892 170.812,351.183 125.568,294.269 223.125,318.375 231.375,285 358.045,318.537 342.118,259.266 321.826,207.348 237.155,157.436 c -4.966,-5.865 -6.252,-9.534 -3.915,-11.067 q 137.376,28.579 171.084,77.799 c 34.559,50.48 76.851,89.525 140.788,126.832 -16.209,-17.614 -27.926,-44.324 -35.342,-80.323 32.932,35.141 49.234,54.592 67.471,64.258 33.007,17.495 66.893,34.664 106.026,51.407 25.527,10.921 -6.025,52.812 6.425,61.045 l 70.684,32.129 c 26.259,9.181 51.995,1.716 77.11,-22.49 25.018,36.749 15.848,59.838 0,83.535 -7.796,11.658 55.021,45.382 44.981,54.62 -20.054,18.449 -31.398,23.715 -32.129,38.554 8.214,13.955 5.479,24.467 -5.548,36.616 l -7.304,-7.699 c -8.702,15.654 -13.674,23.183 -34.991,35.342 8.528,-20.535 2.863,-32.275 2.862,-48.194 -8.933,3.646 -19.26,6.68 -31.007,5.651 3.663,-8.71 3.704,-20.021 0,-30.629 -10.946,3.974 -22.803,5.895 -35.596,5.738 3.431,-8.483 3.496,-18.058 0,-28.916 -12.616,4.164 -23.607,6.301 -32.997,6.388 5.033,-16.218 5.033,-21.806 -16.065,-32.129 -78.917,-30.924 -126.87,-55.734 -179.922,-51.406 67.872,48.193 94.972,92.879 154.219,138.155 l 11.025,10.183 c 5.83,4.616 13.927,9.323 20.773,7.45 1.257,8.354 -0.468,12.058 -1.734,17.709 9.706,1.506 19.092,5.822 26.49,0 2.338,6.971 1.007,11.861 1.655,19.277 7.441,0.802 17.806,1.905 25.327,-3.213 2.467,7.489 0.106,13.365 0,20.862 10.313,-3.125 23.201,-5.748 34.275,-17.649 -0.334,17.712 -9.978,29.519 -21.424,41.768 -29.719,37.752 -98.796,10.843 -151.006,51.406 1,-27.692 10.671,-45.866 35.342,-73.896 -5.623,-6.025 -10.173,-8.536 -15.411,-9.639 -32.984,-3.012 -79.168,-27.463 -119.531,-57.833 -25.704,17.136 -20.316,45.013 -9.639,64.259 42.126,70.079 65.892,133.644 76.079,190.679 0.533,2.981 7.318,37.82 7.777,40.765 z"
         fill="#373737"
         id="path4" />
      <linearGradient
         id="_lgradient_0"
         x1="-0.0090732267"
         y1="-0.085397266"
         x2="1.182072"
         y2="2.675071"
         gradientTransform="matrix(500.15,-58.209,19.169,164.707,322.842,521.537)"
         gradientUnits="userSpaceOnUse">
        <stop
           offset="0%"
           stop-opacity="1"
           style="stop-color:rgb(255,174,0)"
           id="stop4" />
        <stop
           offset="100%"
           stop-opacity="1"
           style="stop-color:rgb(255,0,0)"
           id="stop5" />
      </linearGradient>
      <path
         d="m 350.044,553.574 q -3.314,-5.303 -5.231,-8.037 -6.834,-9.74 -21.971,-24 c 13.88,3.338 30.081,9.366 39.166,23.282 6.024,9.226 12.871,17.495 20.454,24.341 4.14,3.738 8.433,7.108 12.818,10.091 5.038,3.426 9.949,4.425 15.203,7.042 9.023,4.493 18.395,7.497 27.83,8.798 10.41,1.436 20.615,-0.49 30.9,-1.734 8.903,-1.078 17.689,-2.893 26.361,-5.426 9.183,-2.682 18.235,-5.993 27.077,-9.977 18.813,-8.477 36.88,-19.101 54.075,-31.858 8.16,-6.12 16.222,-12.56 24.091,-19.308 4.875,-4.125 9.79,-8.172 14.75,-12.1 4.873,-3.876 9.88,-7.396 15.053,-10.563 5.287,-3.262 10.824,-5.975 16.494,-8.083 6.121,-2.243 12.425,-3.721 18.814,-4.465 5.534,-0.602 11.151,-0.76 16.763,-0.42 6.491,0.403 13.014,1.34 19.466,2.74 7.693,2.703 15.167,6.467 22.377,11.17 6.579,4.364 12.922,9.376 18.998,15.039 5.802,5.447 11.427,11.245 16.844,17.399 5.271,5.964 10.468,12.102 15.578,18.291 4.493,5.434 9.003,10.742 13.599,15.998 4.495,5.185 9.151,10.145 13.906,14.886 4.781,4.698 9.734,9.002 14.859,12.915 5.258,3.98 10.766,7.434 16.422,10.292 10.473,13.436 8.925,19.835 -4.753,19.085 -6.455,-3.303 -12.736,-7.246 -18.745,-11.801 -5.74,-4.378 -11.247,-9.156 -16.559,-14.412 -5.105,-5.073 -10.08,-10.368 -14.894,-15.888 -4.708,-5.409 -9.329,-10.87 -13.928,-16.415 -4.999,-6.037 -10.05,-11.985 -15.183,-17.841 -5.018,-5.662 -10.191,-11.058 -15.568,-16.058 -5.345,-5.004 -10.967,-9.437 -16.768,-13.271 -5.964,-3.898 -12.15,-7.025 -18.527,-9.385 -5.585,-1.17 -11.214,-1.921 -16.857,-2.258 -4.927,-0.336 -9.832,-0.22 -14.686,0.345 -5.467,0.636 -10.828,1.922 -16.087,3.816 -4.895,1.811 -9.667,4.145 -14.228,6.951 -4.732,2.95 -9.307,6.171 -13.757,9.667 -4.847,3.832 -9.622,7.739 -14.353,11.764 -8.092,6.981 -16.38,13.613 -24.828,19.932 -17.942,13.299 -36.847,24.45 -56.497,33.257 -9.35,4.19 -18.937,7.714 -28.626,10.57 -9.271,2.734 -18.702,4.63 -28.247,5.811 -11.294,1.397 -22.764,1.273 -34.19,-0.323 -10.824,-1.512 -21.579,-4.793 -31.864,-10.025 -5.824,-2.962 -11.527,-6.341 -17.114,-10.087 -5.099,-3.419 -10.038,-7.249 -14.733,-11.564 -8.75,-8.041 -16.736,-17.536 -23.704,-28.183 z"
         fill="url(#_lgradient_0)"
         id="path5"
         style="fill:url(#_lgradient_0)" />
      <path
         d="m 620.161,404.803 c 10.37,4.602 20.86,8.81 32.024,12.957 -5.113,24.74 -12.885,39.078 -23.216,36.482 -15.908,-4.817 -29.787,-10.724 -42.6,-16.941 3.551,-1.731 7.116,-3.83 10.613,-6.267 11.108,-7.741 19.268,-17.313 23.179,-26.231 z M 579.887,384.28 c -3.512,-2.07 -7.027,-4.145 -10.616,-6.318 -42.848,9.949 -75.68,10.427 -89.546,19.899 25.746,2.52 46.176,10.124 65.882,19.355 3.888,-8.987 12.094,-18.66 23.3,-26.469 3.617,-2.52 7.308,-4.68 10.98,-6.467 z"
         fill-rule="evenodd"
         fill="#ffffff"
         id="path6" />
    </g>
    <g
       id="g7">
      <path
         d="M 0.027,500 C 0.027,224.042 224.063,0 500.013,0 775.964,0 1000,224.042 1000,500 1000,775.958 775.964,1000 500.013,1000 224.063,1000 0.027,775.958 0.027,500 Z M 40,499.987 c 0,-253.881 206.119,-460 460,-460 253.881,0 460,206.119 460,460 0,253.881 -206.119,460 -460,460 -253.881,0 -460,-206.119 -460,-460 z"
         fill-rule="evenodd"
         fill="#373737"
         id="path7" />
    </g>
  </g>
  <text
     xml:space="preserve"
     transform="matrix(35.256479,0,0,35.256479,-74570.345,-13535.826)"
     id="text10"
     style="font-style:normal;font-variant:normal;font-weight:normal;font-stretch:normal;font-size:21.3333px;font-family:Belanosima;-inkscape-font-specification:'Belanosima, Normal';font-variant-ligatures:normal;font-variant-caps:normal;font-variant-numeric:normal;font-variant-east-asian:normal;text-align:center;white-space:pre;shape-inside:url(#rect10);display:inline;fill:#ffffff;fill-opacity:1;stroke-width:1.88976;stroke-linecap:round;paint-order:markers stroke fill"><tspan
       x="2144.129"
       y="406.34453"
       id="tspan2">RamBros</tspan></text>
</svg>
